<mxfile host="app.diagrams.net" modified="2020-09-16T01:27:39.800Z" agent="5.0 (Macintosh; Intel Mac OS X 10_15_6) AppleWebKit/537.36 (KHTML, like Gecko) Chrome/85.0.4183.102 Safari/537.36" etag="ZtQW_DkV9k3oYg5bouvr" version="13.6.6" type="github" pages="4">
  <diagram id="535jIaAnYmbFfIY-fmwr" name="Client/Server DB">
    <mxGraphModel dx="1426" dy="842" grid="1" gridSize="10" guides="1" tooltips="1" connect="1" arrows="1" fold="1" page="1" pageScale="1" pageWidth="850" pageHeight="1100" math="0" shadow="0">
      <root>
        <mxCell id="bosU0lAAXiq1cYPxXi9d-0" />
        <mxCell id="bosU0lAAXiq1cYPxXi9d-1" parent="bosU0lAAXiq1cYPxXi9d-0" />
        <mxCell id="bosU0lAAXiq1cYPxXi9d-2" value="" style="points=[];aspect=fixed;html=1;align=center;shadow=0;dashed=0;image;image=img/lib/allied_telesis/computer_and_terminals/Personal_Computer_with_Server.svg;" vertex="1" parent="bosU0lAAXiq1cYPxXi9d-1">
          <mxGeometry x="200" y="242.1" width="82.4" height="82.4" as="geometry" />
        </mxCell>
        <mxCell id="bosU0lAAXiq1cYPxXi9d-3" value="" style="aspect=fixed;perimeter=ellipsePerimeter;html=1;align=center;shadow=0;dashed=0;spacingTop=3;image;image=img/lib/active_directory/database_server.svg;" vertex="1" parent="bosU0lAAXiq1cYPxXi9d-1">
          <mxGeometry x="600" y="240" width="71" height="86.59" as="geometry" />
        </mxCell>
        <mxCell id="bosU0lAAXiq1cYPxXi9d-4" value="select * from `posts`" style="endArrow=classic;html=1;exitX=1.007;exitY=0.521;exitDx=0;exitDy=0;exitPerimeter=0;" edge="1" parent="bosU0lAAXiq1cYPxXi9d-1" source="bosU0lAAXiq1cYPxXi9d-2" target="bosU0lAAXiq1cYPxXi9d-3">
          <mxGeometry x="-0.0089" y="14" width="50" height="50" relative="1" as="geometry">
            <mxPoint x="460" y="520" as="sourcePoint" />
            <mxPoint x="510" y="470" as="targetPoint" />
            <mxPoint as="offset" />
          </mxGeometry>
        </mxCell>
        <mxCell id="bosU0lAAXiq1cYPxXi9d-5" value="[posts]" style="endArrow=classic;html=1;exitX=0;exitY=0.75;exitDx=0;exitDy=0;entryX=0.728;entryY=0.732;entryDx=0;entryDy=0;entryPerimeter=0;" edge="1" parent="bosU0lAAXiq1cYPxXi9d-1" source="bosU0lAAXiq1cYPxXi9d-3" target="bosU0lAAXiq1cYPxXi9d-2">
          <mxGeometry x="0.0106" y="18" width="50" height="50" relative="1" as="geometry">
            <mxPoint x="460" y="520" as="sourcePoint" />
            <mxPoint x="510" y="470" as="targetPoint" />
            <mxPoint as="offset" />
          </mxGeometry>
        </mxCell>
        <mxCell id="bosU0lAAXiq1cYPxXi9d-6" value="Client Machine" style="whiteSpace=wrap;html=1;aspect=fixed;" vertex="1" parent="bosU0lAAXiq1cYPxXi9d-1">
          <mxGeometry x="160" y="460" width="120" height="120" as="geometry" />
        </mxCell>
        <mxCell id="bosU0lAAXiq1cYPxXi9d-7" value="select * from `posts`" style="endArrow=classic;html=1;exitX=1.007;exitY=0.521;exitDx=0;exitDy=0;exitPerimeter=0;" edge="1" parent="bosU0lAAXiq1cYPxXi9d-1">
          <mxGeometry x="-0.0089" y="14" width="50" height="50" relative="1" as="geometry">
            <mxPoint x="272.3568" y="491.6304" as="sourcePoint" />
            <mxPoint x="589.3800963146805" y="489.995851999106" as="targetPoint" />
            <mxPoint as="offset" />
          </mxGeometry>
        </mxCell>
        <mxCell id="bosU0lAAXiq1cYPxXi9d-8" value="[posts]" style="endArrow=classic;html=1;exitX=0;exitY=0.75;exitDx=0;exitDy=0;entryX=0.728;entryY=0.732;entryDx=0;entryDy=0;entryPerimeter=0;" edge="1" parent="bosU0lAAXiq1cYPxXi9d-1">
          <mxGeometry x="0.0106" y="18" width="50" height="50" relative="1" as="geometry">
            <mxPoint x="593.026225920868" y="509.00726444747943" as="sourcePoint" />
            <mxPoint x="249.36720000000003" y="509.0167999999999" as="targetPoint" />
            <mxPoint as="offset" />
          </mxGeometry>
        </mxCell>
        <mxCell id="bosU0lAAXiq1cYPxXi9d-9" value="Application" style="rounded=1;whiteSpace=wrap;html=1;" vertex="1" parent="bosU0lAAXiq1cYPxXi9d-1">
          <mxGeometry x="170" y="470" width="90" height="30" as="geometry" />
        </mxCell>
        <mxCell id="bosU0lAAXiq1cYPxXi9d-10" value="Database Server" style="whiteSpace=wrap;html=1;aspect=fixed;" vertex="1" parent="bosU0lAAXiq1cYPxXi9d-1">
          <mxGeometry x="600" y="460" width="120" height="120" as="geometry" />
        </mxCell>
        <mxCell id="bosU0lAAXiq1cYPxXi9d-11" value="" style="aspect=fixed;perimeter=ellipsePerimeter;html=1;align=center;shadow=0;dashed=0;spacingTop=3;image;image=img/lib/active_directory/database.svg;" vertex="1" parent="bosU0lAAXiq1cYPxXi9d-1">
          <mxGeometry x="690" y="560" width="40" height="29.6" as="geometry" />
        </mxCell>
        <mxCell id="bosU0lAAXiq1cYPxXi9d-12" style="edgeStyle=orthogonalEdgeStyle;rounded=0;orthogonalLoop=1;jettySize=auto;html=1;entryX=1;entryY=0.5;entryDx=0;entryDy=0;exitX=1;exitY=0.5;exitDx=0;exitDy=0;startArrow=blockThin;startFill=1;" edge="1" parent="bosU0lAAXiq1cYPxXi9d-1" source="bosU0lAAXiq1cYPxXi9d-13" target="bosU0lAAXiq1cYPxXi9d-11">
          <mxGeometry relative="1" as="geometry" />
        </mxCell>
        <mxCell id="bosU0lAAXiq1cYPxXi9d-13" value="DB Service" style="rounded=1;whiteSpace=wrap;html=1;" vertex="1" parent="bosU0lAAXiq1cYPxXi9d-1">
          <mxGeometry x="610" y="470" width="90" height="30" as="geometry" />
        </mxCell>
        <mxCell id="bosU0lAAXiq1cYPxXi9d-14" style="edgeStyle=orthogonalEdgeStyle;curved=1;rounded=0;orthogonalLoop=1;jettySize=auto;html=1;exitX=0.75;exitY=1;exitDx=0;exitDy=0;startArrow=none;startFill=0;strokeColor=#FF1212;strokeWidth=1;fillColor=#FF0505;fontSize=12;fontColor=#0000FF;" edge="1" parent="bosU0lAAXiq1cYPxXi9d-1" source="bosU0lAAXiq1cYPxXi9d-15">
          <mxGeometry relative="1" as="geometry">
            <mxPoint x="671" y="322" as="targetPoint" />
            <Array as="points">
              <mxPoint x="728" y="322" />
              <mxPoint x="671" y="322" />
            </Array>
          </mxGeometry>
        </mxCell>
        <mxCell id="bosU0lAAXiq1cYPxXi9d-15" value="Disk drive (stack of disks)" style="text;html=1;strokeColor=none;fillColor=none;align=center;verticalAlign=middle;whiteSpace=wrap;rounded=0;fontSize=12;fontColor=#0000FF;" vertex="1" parent="bosU0lAAXiq1cYPxXi9d-1">
          <mxGeometry x="660" y="220" width="90" height="20" as="geometry" />
        </mxCell>
        <mxCell id="Mg0Tv42Y7-0YUnyx9uJ5-0" value="Client/Server DB" style="rounded=1;whiteSpace=wrap;html=1;strokeWidth=2;fillColor=none;fontSize=20;fontColor=#0000FF;strokeColor=#2617FF;" vertex="1" parent="bosU0lAAXiq1cYPxXi9d-1">
          <mxGeometry x="233" y="40" width="385" height="60" as="geometry" />
        </mxCell>
      </root>
    </mxGraphModel>
  </diagram>
  <diagram id="C5RBs43oDa-KdzZeNtuy" name="File-based DB">
    <mxGraphModel dx="1426" dy="842" grid="1" gridSize="10" guides="1" tooltips="1" connect="1" arrows="1" fold="1" page="1" pageScale="1" pageWidth="827" pageHeight="1169" math="0" shadow="0">
      <root>
        <mxCell id="WIyWlLk6GJQsqaUBKTNV-0" />
        <mxCell id="WIyWlLk6GJQsqaUBKTNV-1" parent="WIyWlLk6GJQsqaUBKTNV-0" />
        <mxCell id="sINU_W-0aVp5hmcY1Ufi-14" style="edgeStyle=orthogonalEdgeStyle;rounded=0;orthogonalLoop=1;jettySize=auto;html=1;startArrow=blockThin;startFill=1;" edge="1" parent="WIyWlLk6GJQsqaUBKTNV-1" source="sINU_W-0aVp5hmcY1Ufi-2" target="sINU_W-0aVp5hmcY1Ufi-2">
          <mxGeometry relative="1" as="geometry">
            <mxPoint x="340" y="420" as="targetPoint" />
            <Array as="points">
              <mxPoint x="640" y="390" />
            </Array>
          </mxGeometry>
        </mxCell>
        <mxCell id="sINU_W-0aVp5hmcY1Ufi-2" value="" style="points=[];aspect=fixed;html=1;align=center;shadow=0;dashed=0;image;image=img/lib/allied_telesis/computer_and_terminals/Personal_Computer_with_Server.svg;" vertex="1" parent="WIyWlLk6GJQsqaUBKTNV-1">
          <mxGeometry x="280" y="330" width="82.4" height="82.4" as="geometry" />
        </mxCell>
        <mxCell id="sINU_W-0aVp5hmcY1Ufi-3" value="" style="aspect=fixed;perimeter=ellipsePerimeter;html=1;align=center;shadow=0;dashed=0;spacingTop=3;image;image=img/lib/active_directory/database.svg;" vertex="1" parent="WIyWlLk6GJQsqaUBKTNV-1">
          <mxGeometry x="250" y="370" width="40" height="29.6" as="geometry" />
        </mxCell>
        <mxCell id="sINU_W-0aVp5hmcY1Ufi-15" value="Client Machine" style="whiteSpace=wrap;html=1;aspect=fixed;" vertex="1" parent="WIyWlLk6GJQsqaUBKTNV-1">
          <mxGeometry x="280" y="600" width="190" height="190" as="geometry" />
        </mxCell>
        <mxCell id="sINU_W-0aVp5hmcY1Ufi-16" value="Application" style="rounded=1;whiteSpace=wrap;html=1;" vertex="1" parent="WIyWlLk6GJQsqaUBKTNV-1">
          <mxGeometry x="290" y="610" width="170" height="30" as="geometry" />
        </mxCell>
        <mxCell id="sINU_W-0aVp5hmcY1Ufi-17" value="" style="aspect=fixed;perimeter=ellipsePerimeter;html=1;align=center;shadow=0;dashed=0;spacingTop=3;image;image=img/lib/active_directory/database.svg;" vertex="1" parent="WIyWlLk6GJQsqaUBKTNV-1">
          <mxGeometry x="460" y="740" width="54.05" height="40" as="geometry" />
        </mxCell>
        <mxCell id="7XNnbv8hsG_1OXoC5hqW-5" value="select * from `posts" style="text;html=1;strokeColor=none;fillColor=none;align=center;verticalAlign=middle;whiteSpace=wrap;rounded=0;fontSize=12;fontColor=#0000FF;" vertex="1" parent="WIyWlLk6GJQsqaUBKTNV-1">
          <mxGeometry x="420" y="330" width="120" height="20" as="geometry" />
        </mxCell>
        <mxCell id="7XNnbv8hsG_1OXoC5hqW-7" value="[posts]" style="text;html=1;strokeColor=none;fillColor=none;align=center;verticalAlign=middle;whiteSpace=wrap;rounded=0;fontSize=12;fontColor=#0000FF;" vertex="1" parent="WIyWlLk6GJQsqaUBKTNV-1">
          <mxGeometry x="440" y="392.4" width="120" height="20" as="geometry" />
        </mxCell>
        <mxCell id="7XNnbv8hsG_1OXoC5hqW-8" style="edgeStyle=orthogonalEdgeStyle;rounded=0;orthogonalLoop=1;jettySize=auto;html=1;startArrow=blockThin;startFill=1;entryX=1;entryY=0.25;entryDx=0;entryDy=0;exitX=1;exitY=0.5;exitDx=0;exitDy=0;" edge="1" parent="WIyWlLk6GJQsqaUBKTNV-1" source="sINU_W-0aVp5hmcY1Ufi-16" target="sINU_W-0aVp5hmcY1Ufi-17">
          <mxGeometry relative="1" as="geometry">
            <mxPoint x="352.4" y="560" as="targetPoint" />
            <mxPoint x="352.4" y="522.4000000000001" as="sourcePoint" />
            <Array as="points">
              <mxPoint x="630" y="625" />
              <mxPoint x="630" y="751" />
            </Array>
          </mxGeometry>
        </mxCell>
        <mxCell id="7XNnbv8hsG_1OXoC5hqW-10" value="select * from `posts" style="text;html=1;strokeColor=none;fillColor=none;align=center;verticalAlign=middle;whiteSpace=wrap;rounded=0;fontSize=12;fontColor=#0000FF;" vertex="1" parent="WIyWlLk6GJQsqaUBKTNV-1">
          <mxGeometry x="500" y="600" width="120" height="20" as="geometry" />
        </mxCell>
        <mxCell id="7XNnbv8hsG_1OXoC5hqW-12" value="[posts]" style="text;html=1;strokeColor=none;fillColor=none;align=center;verticalAlign=middle;whiteSpace=wrap;rounded=0;fontSize=12;fontColor=#0000FF;" vertex="1" parent="WIyWlLk6GJQsqaUBKTNV-1">
          <mxGeometry x="510" y="760" width="120" height="20" as="geometry" />
        </mxCell>
        <mxCell id="RgpZk7JZQ5d2M3glFQTo-0" value="File-based DB" style="rounded=1;whiteSpace=wrap;html=1;strokeWidth=2;fillColor=none;fontSize=20;fontColor=#0000FF;strokeColor=#2617FF;" vertex="1" parent="WIyWlLk6GJQsqaUBKTNV-1">
          <mxGeometry x="233" y="40" width="385" height="60" as="geometry" />
        </mxCell>
      </root>
    </mxGraphModel>
  </diagram>
  <diagram id="Rt2idcS5UanygktmBUxr" name="File-based DB with Raw SQL">
    <mxGraphModel dx="1426" dy="842" grid="1" gridSize="10" guides="1" tooltips="1" connect="1" arrows="1" fold="1" page="1" pageScale="1" pageWidth="850" pageHeight="1100" math="0" shadow="0">
      <root>
        <mxCell id="48dqMW29AaX_sZPMYH46-0" />
        <mxCell id="48dqMW29AaX_sZPMYH46-1" parent="48dqMW29AaX_sZPMYH46-0" />
        <mxCell id="48dqMW29AaX_sZPMYH46-2" value="" style="rounded=1;whiteSpace=wrap;html=1;" vertex="1" parent="48dqMW29AaX_sZPMYH46-1">
          <mxGeometry x="160" y="390" width="550" height="320" as="geometry" />
        </mxCell>
        <mxCell id="48dqMW29AaX_sZPMYH46-3" value="" style="shape=cube;whiteSpace=wrap;html=1;boundedLbl=1;backgroundOutline=1;darkOpacity=0.05;darkOpacity2=0.1;" vertex="1" parent="48dqMW29AaX_sZPMYH46-1">
          <mxGeometry x="170" y="410" width="410" height="280" as="geometry" />
        </mxCell>
        <mxCell id="M9dh-8qWz-MCQfVXo83x-0" value="" style="aspect=fixed;perimeter=ellipsePerimeter;html=1;align=center;shadow=0;dashed=0;spacingTop=3;image;image=img/lib/active_directory/database.svg;" vertex="1" parent="48dqMW29AaX_sZPMYH46-1">
          <mxGeometry x="620" y="570" width="121.61" height="90" as="geometry" />
        </mxCell>
        <mxCell id="M9dh-8qWz-MCQfVXo83x-4" value="SQL&lt;br style=&quot;font-size: 12px;&quot;&gt;Command&lt;br style=&quot;font-size: 12px;&quot;&gt;&lt;font color=&quot;#0000ff&quot; style=&quot;font-size: 12px;&quot;&gt;(select * from `posts`)&lt;/font&gt;" style="edgeStyle=orthogonalEdgeStyle;rounded=0;orthogonalLoop=1;jettySize=auto;html=1;exitX=1;exitY=0.5;exitDx=0;exitDy=0;entryX=0;entryY=0.5;entryDx=0;entryDy=0;startArrow=blockThin;startFill=1;fontSize=12;" edge="1" parent="48dqMW29AaX_sZPMYH46-1" source="M9dh-8qWz-MCQfVXo83x-1" target="M9dh-8qWz-MCQfVXo83x-2">
          <mxGeometry relative="1" as="geometry" />
        </mxCell>
        <mxCell id="M9dh-8qWz-MCQfVXo83x-1" value="Application" style="shape=process;whiteSpace=wrap;html=1;backgroundOutline=1;" vertex="1" parent="48dqMW29AaX_sZPMYH46-1">
          <mxGeometry x="192" y="450" width="120" height="60" as="geometry" />
        </mxCell>
        <mxCell id="M9dh-8qWz-MCQfVXo83x-3" style="edgeStyle=orthogonalEdgeStyle;rounded=0;orthogonalLoop=1;jettySize=auto;html=1;startArrow=blockThin;startFill=1;" edge="1" parent="48dqMW29AaX_sZPMYH46-1" source="M9dh-8qWz-MCQfVXo83x-2" target="M9dh-8qWz-MCQfVXo83x-0">
          <mxGeometry relative="1" as="geometry" />
        </mxCell>
        <mxCell id="M9dh-8qWz-MCQfVXo83x-2" value="DB Driver" style="shape=process;whiteSpace=wrap;html=1;backgroundOutline=1;" vertex="1" parent="48dqMW29AaX_sZPMYH46-1">
          <mxGeometry x="458" y="450" width="120" height="60" as="geometry" />
        </mxCell>
        <mxCell id="H-8tZZU-TxMJIMdXUNRk-0" value="File-Based DB With Raw SQL" style="rounded=1;whiteSpace=wrap;html=1;strokeWidth=2;fillColor=none;fontSize=20;fontColor=#0000FF;strokeColor=#2617FF;" vertex="1" parent="48dqMW29AaX_sZPMYH46-1">
          <mxGeometry x="233" y="40" width="385" height="60" as="geometry" />
        </mxCell>
      </root>
    </mxGraphModel>
  </diagram>
  <diagram id="jBQavaD3uOYNNbAxD5As" name="File-based DB with SQL Query Builder">
    <mxGraphModel dx="1426" dy="842" grid="1" gridSize="10" guides="1" tooltips="1" connect="1" arrows="1" fold="1" page="1" pageScale="1" pageWidth="850" pageHeight="1100" math="0" shadow="0">
      <root>
        <mxCell id="hrmVagEC84Tlhv_8ULsw-0" />
        <mxCell id="hrmVagEC84Tlhv_8ULsw-1" parent="hrmVagEC84Tlhv_8ULsw-0" />
        <mxCell id="HOP1BrM0tDb1RVY99nl5-0" value="" style="rounded=1;whiteSpace=wrap;html=1;" vertex="1" parent="hrmVagEC84Tlhv_8ULsw-1">
          <mxGeometry x="130" y="350" width="550" height="320" as="geometry" />
        </mxCell>
        <mxCell id="HOP1BrM0tDb1RVY99nl5-1" value="" style="shape=cube;whiteSpace=wrap;html=1;boundedLbl=1;backgroundOutline=1;darkOpacity=0.05;darkOpacity2=0.1;" vertex="1" parent="hrmVagEC84Tlhv_8ULsw-1">
          <mxGeometry x="140" y="370" width="410" height="280" as="geometry" />
        </mxCell>
        <mxCell id="HOP1BrM0tDb1RVY99nl5-2" value="" style="aspect=fixed;perimeter=ellipsePerimeter;html=1;align=center;shadow=0;dashed=0;spacingTop=3;image;image=img/lib/active_directory/database.svg;" vertex="1" parent="hrmVagEC84Tlhv_8ULsw-1">
          <mxGeometry x="590" y="530" width="121.61" height="90" as="geometry" />
        </mxCell>
        <mxCell id="HOP1BrM0tDb1RVY99nl5-3" value="Module&lt;br style=&quot;font-size: 12px&quot;&gt;API&lt;br&gt;&lt;font color=&quot;#0000ff&quot;&gt;(knex(&#39;posts&#39;))&lt;/font&gt;" style="edgeStyle=orthogonalEdgeStyle;rounded=0;orthogonalLoop=1;jettySize=auto;html=1;exitX=1;exitY=0.5;exitDx=0;exitDy=0;startArrow=blockThin;startFill=1;fontSize=12;" edge="1" parent="hrmVagEC84Tlhv_8ULsw-1" source="HOP1BrM0tDb1RVY99nl5-4" target="HOP1BrM0tDb1RVY99nl5-8">
          <mxGeometry relative="1" as="geometry" />
        </mxCell>
        <mxCell id="HOP1BrM0tDb1RVY99nl5-4" value="Application" style="shape=process;whiteSpace=wrap;html=1;backgroundOutline=1;" vertex="1" parent="hrmVagEC84Tlhv_8ULsw-1">
          <mxGeometry x="165" y="410" width="120" height="60" as="geometry" />
        </mxCell>
        <mxCell id="HOP1BrM0tDb1RVY99nl5-5" style="edgeStyle=orthogonalEdgeStyle;rounded=0;orthogonalLoop=1;jettySize=auto;html=1;startArrow=blockThin;startFill=1;" edge="1" parent="hrmVagEC84Tlhv_8ULsw-1" source="HOP1BrM0tDb1RVY99nl5-6" target="HOP1BrM0tDb1RVY99nl5-2">
          <mxGeometry relative="1" as="geometry" />
        </mxCell>
        <mxCell id="HOP1BrM0tDb1RVY99nl5-6" value="DB Driver" style="shape=process;whiteSpace=wrap;html=1;backgroundOutline=1;" vertex="1" parent="hrmVagEC84Tlhv_8ULsw-1">
          <mxGeometry x="420" y="545" width="120" height="60" as="geometry" />
        </mxCell>
        <mxCell id="HOP1BrM0tDb1RVY99nl5-7" value="SQL&lt;br style=&quot;font-size: 12px;&quot;&gt;Command&lt;br style=&quot;font-size: 12px;&quot;&gt;&lt;font color=&quot;#0000ff&quot; style=&quot;font-size: 12px;&quot;&gt;(select * from `posts`)&lt;/font&gt;" style="edgeStyle=orthogonalEdgeStyle;rounded=0;orthogonalLoop=1;jettySize=auto;html=1;exitX=0.5;exitY=1;exitDx=0;exitDy=0;startArrow=blockThin;startFill=1;fontSize=12;" edge="1" parent="hrmVagEC84Tlhv_8ULsw-1" source="HOP1BrM0tDb1RVY99nl5-8" target="HOP1BrM0tDb1RVY99nl5-6">
          <mxGeometry relative="1" as="geometry" />
        </mxCell>
        <mxCell id="HOP1BrM0tDb1RVY99nl5-8" value="SQL Query Builder &lt;br&gt;(like Knex)" style="shape=process;whiteSpace=wrap;html=1;backgroundOutline=1;" vertex="1" parent="hrmVagEC84Tlhv_8ULsw-1">
          <mxGeometry x="420" y="410" width="120" height="60" as="geometry" />
        </mxCell>
        <mxCell id="EoEq0Ha16m55ZjsziiEe-0" value="File-Based DB With SQL Query Builder" style="rounded=1;whiteSpace=wrap;html=1;strokeWidth=2;fillColor=none;fontSize=20;fontColor=#0000FF;strokeColor=#2617FF;" vertex="1" parent="hrmVagEC84Tlhv_8ULsw-1">
          <mxGeometry x="233" y="40" width="385" height="60" as="geometry" />
        </mxCell>
      </root>
    </mxGraphModel>
  </diagram>
</mxfile>
